# xmcd
#
# Track frame offsets:
#	183
#	13875
#	26168
#	39110
#	53213
#	63648
#	78633
#	91298
#	102283
#	116178
#	125900
#	135935
#	150228
#	167823
#	179183
#	190608
#	202118
#	216980
#	228760
#	244560
#
# Disc length: 3461 seconds
#
# Revision: 1
# Processed by: cddbd v1.5.2PL0 Copyright (c) Steve Scherf et al.
# Submitted via: EasyCDDAExtractor 9.0.0.1
#
DISCID=190d8314
DTITLE=The Drifters - Save the last dance for me
DYEAR=2006
DGENRE=Soul
TTITLE0=Save the last dance for me
TTITLE1=Save the last dance for me
TTITLE2=Save the last dance for me
TTITLE3=Save the last dance for me
TTITLE4=Save the last dance for me
TTITLE5=Save the last dance for me
TTITLE6=Save the last dance for me
TTITLE7=Save the last dance for me
TTITLE8=Save the last dance for me
TTITLE9=Save the last dance for me
TTITLE10=Save the last dance for me
TTITLE11=Save the last dance for me
TTITLE12=Save the last dance for me
TTITLE13=Save the last dance for me
TTITLE14=Save the last dance for me
TTITLE15=Save the last dance for me
TTITLE16=Save the last dance for me
TTITLE17=Save the last dance for me
TTITLE18=Save the last dance for me
TTITLE19=Save the last dance for me
EXTD=
EXTT0=
EXTT1=
EXTT2=
EXTT3=
EXTT4=
EXTT5=
EXTT6=
EXTT7=
EXTT8=
EXTT9=
EXTT10=
EXTT11=
EXTT12=
EXTT13=
EXTT14=
EXTT15=
EXTT16=
EXTT17=
EXTT18=
EXTT19=
PLAYORDER=
